<mxfile host="app.diagrams.net" modified="2022-08-18T01:58:39.969Z" agent="5.0 (Windows)" etag="c6HkC1FJzEKPcCBt2hHj" version="18.1.1" type="github">
  <diagram id="Ka_yhlfQBt1nnNOFSuwi" name="Page-1">
    <mxGraphModel dx="1038" dy="547" grid="1" gridSize="10" guides="1" tooltips="1" connect="1" arrows="1" fold="1" page="1" pageScale="1" pageWidth="827" pageHeight="1169" math="0" shadow="0">
      <root>
        <mxCell id="0" />
        <mxCell id="1" parent="0" />
        <mxCell id="fz9vf7qBXlm0riUWRxJQ-1" value="边缘网关" style="aspect=fixed;html=1;points=[];align=center;image;fontSize=12;image=img/lib/azure2/storage/Azure_Stack_Edge.svg;" vertex="1" parent="1">
          <mxGeometry x="370" y="100" width="68" height="48" as="geometry" />
        </mxCell>
      </root>
    </mxGraphModel>
  </diagram>
</mxfile>
